<?xml version="1.0" encoding="UTF-8" standalone="no" ?>
<!DOCTYPE svg PUBLIC "-//W3C//DTD SVG 1.1//EN" "http://www.w3.org/Graphics/SVG/1.1/DTD/svg11.dtd">
<svg xmlns="http://www.w3.org/2000/svg" xmlns:xlink="http://www.w3.org/1999/xlink" version="1.1" width="1080" height="1080" viewBox="0 0 1080 1080" xml:space="preserve">
<desc>Created with Fabric.js 5.2.4</desc>
<defs>
</defs>
<g transform="matrix(1 0 0 1 540 540)" id="0ea9a0d5-cf82-423a-b96f-4e3e5d552d47"  >
<rect style="stroke: none; stroke-width: 1; stroke-dasharray: none; stroke-linecap: butt; stroke-dashoffset: 0; stroke-linejoin: miter; stroke-miterlimit: 4; fill: rgb(255,255,255); fill-rule: nonzero; opacity: 1; visibility: hidden;" vector-effect="non-scaling-stroke"  x="-540" y="-540" rx="0" ry="0" width="1080" height="1080" />
</g>
<g transform="matrix(1 0 0 1 540 540)" id="558f4fbc-1402-46e3-a062-812f1fa10bb8"  >
</g>
<g transform="matrix(1.52 0 0 1.32 386.55 590.34)"  >
<path style="stroke: none; stroke-width: 1; stroke-dasharray: none; stroke-linecap: butt; stroke-dashoffset: 0; stroke-linejoin: miter; stroke-miterlimit: 4; fill: rgb(243,96,60); fill-rule: evenodd; opacity: 1;" vector-effect="non-scaling-stroke"  transform=" translate(-7.8, -8)" d="M 2.786 10.286 C 4.324 10.286 5.571 11.565 5.571 13.143 C 5.571 14.72 4.324 16 2.786 16 C 1.247 16 0 14.72 0 13.143 C 0 11.565000000000001 1.247 10.286000000000001 2.786 10.286000000000001 z M 2.786 0 C 4.324 0 5.57 1.28 5.57 2.857 C 5.57 4.4350000000000005 4.323 5.714 2.785 5.714 C 1.247 5.714 0 4.435 0 2.857 C 0 1.28 1.247 0 2.786 0 z M 12.814 0 C 14.353 0 15.6 1.28 15.6 2.857 C 15.6 4.4350000000000005 14.353 5.714 12.814 5.714 C 11.276 5.714 10.029 4.4350000000000005 10.029 2.857 C 10.029 1.28 11.276 0 12.814 0 z" stroke-linecap="round" />
</g>
<g transform="matrix(0.61 0 0 0.61 522.27 590.12)" style="" id="7c3b6d19-4f30-4bdb-bb73-efeb09a56fcb"  >
		<text xml:space="preserve" font-family="Alegreya" font-size="80" font-style="normal" font-weight="700" style="stroke: none; stroke-width: 1; stroke-dasharray: none; stroke-linecap: butt; stroke-dashoffset: 0; stroke-linejoin: miter; stroke-miterlimit: 4; fill: rgb(0,0,0); fill-rule: nonzero; opacity: 1; white-space: pre;" ><tspan x="-188.28" y="25.13" >Sudhanshu</tspan></text>
</g>
</svg>