<svg xmlns="http://www.w3.org/2000/svg" width="48" height="48" id="steam"><path d="M24 4.79A19.21 19.21 0 0 0 4.83 22.32l10 4.24a5.65 5.65 0 0 1 3.89-1l4.57-6.79a7 7 0 1 1 7.15 7.5l-6.66 4.31a4.44 4.44 0 0 1 0 .63 5.68 5.68 0 0 1-11.32.67l-7.18-3A19.21 19.21 0 1 0 24 4.79Z"></path><path d="M30.28 24a4.74 4.74 0 1 0-4.73-4.74A4.74 4.74 0 0 0 30.28 24zm0-8.41a3.67 3.67 0 1 1-3.67 3.67 3.67 3.67 0 0 1 3.67-3.67zM18.18 27h-.42a4.49 4.49 0 0 0-1.16.29l.75.32 1.45.61A2.88 2.88 0 0 1 20.33 32a2.83 2.83 0 0 1-1.63 1.57 2.86 2.86 0 0 1-2.15 0l-2.28-1a4.18 4.18 0 0 0 8.12-1.07v-.32A4.2 4.2 0 0 0 18.18 27z"></path></svg>