<svg width="28" height="28" viewBox="0 0 28 28" fill="none" xmlns="http://www.w3.org/2000/svg">
<path d="M10.9652 0.0325222C8.73942 0.273148 7.09332 0.803617 5.41442 1.81534C4.53942 2.34034 3.9816 2.78877 3.14489 3.63096C2.36285 4.41846 1.88707 5.03096 1.39489 5.88955C-0.579333 9.31846 -0.442614 13.4856 1.74489 16.7997L2.1277 17.3794L1.08317 19.9388C0.120667 22.3122 0.0386358 22.531 0.033167 22.8591C0.0276983 23.2856 0.164417 23.5481 0.508948 23.7778C0.683948 23.8927 0.793323 23.9255 1.06129 23.9255C1.36207 23.9255 1.49879 23.8817 2.43395 23.4661C3.00817 23.2146 4.35348 22.6185 5.43629 22.1427L7.39411 21.2731L7.95192 21.4591C8.2527 21.563 8.76676 21.7052 9.08942 21.7763L9.67457 21.9075L9.88786 22.2302C10.0027 22.4106 10.2871 22.7825 10.5168 23.0614C12.1027 24.9481 14.4925 26.1786 17.1285 26.463C18.4957 26.6161 20.0871 26.4521 21.3886 26.0364L21.8699 25.8778L24.2105 26.9224C26.4527 27.9177 26.5675 27.9614 26.9175 27.9669C27.2402 27.9724 27.3058 27.956 27.5136 27.8083C27.8363 27.5786 27.973 27.2942 27.9675 26.8786C27.9621 26.5888 27.8582 26.3099 27.1418 24.5544L26.3269 22.5583L26.6113 22.1208C27.448 20.8302 27.9019 19.4083 27.9785 17.8552C28.0769 15.9028 27.4644 13.9396 26.2613 12.3263C25.8074 11.7192 24.9324 10.8497 24.3527 10.4231L23.9152 10.106L23.8441 9.6083C23.5925 7.77627 22.7886 5.94424 21.5636 4.4294C21.3777 4.20518 20.9621 3.75674 20.6394 3.43955C18.8129 1.66221 16.5379 0.552053 13.8636 0.136429C13.3332 0.0543976 11.4136 -0.016695 10.9652 0.0325222ZM13.0214 2.2419C17.4074 2.69034 20.9074 5.69268 21.6402 9.64112C21.7824 10.4013 21.766 11.8833 21.6129 12.6106C21.3996 13.6114 21.1207 14.3278 20.5738 15.2849C20.3004 15.7661 20.2621 15.8646 20.2621 16.1325C20.2621 16.8981 21.055 17.4341 21.7496 17.1442C22.0175 17.0294 22.1215 16.931 22.3566 16.57C22.8816 15.7552 23.423 14.4536 23.6636 13.4364L23.8113 12.8349L24.1011 13.1466C24.4894 13.5677 24.8941 14.1747 25.184 14.7817C26.2449 16.9911 25.9386 19.5122 24.3746 21.4864C24.0629 21.8802 23.9371 22.2411 24.0082 22.5528C24.03 22.6622 24.2269 23.1927 24.4457 23.7341C24.6644 24.281 24.8285 24.7349 24.8121 24.7513C24.8011 24.7677 24.3418 24.5817 23.8004 24.3411C21.8589 23.4771 21.9847 23.5044 21.0277 23.838C19.9777 24.2099 19.4363 24.2974 18.266 24.3028C17.4949 24.3028 17.1285 24.281 16.7347 24.2044C15.3293 23.931 14.0441 23.3239 12.9886 22.4435L12.6058 22.1208L12.9613 22.0771C14.4652 21.9021 15.5371 21.656 16.5925 21.2513C17.9652 20.7153 18.266 20.4747 18.3097 19.8513C18.3425 19.4138 18.184 19.0802 17.8394 18.8614C17.4621 18.6208 17.1066 18.6372 16.4832 18.9216C13.88 20.1192 10.8996 20.2341 8.23629 19.2333C7.31207 18.8888 7.42145 18.8669 5.14645 19.8731C4.08551 20.3435 3.19957 20.7153 3.18317 20.7044C3.16676 20.688 3.44567 19.9661 3.79567 19.0966C4.14567 18.2271 4.44645 17.4286 4.46832 17.3192C4.51754 17.0185 4.39176 16.6739 4.12379 16.3458C3.50582 15.5966 2.90426 14.5138 2.60348 13.6169C2.31364 12.7419 2.22067 12.1349 2.22067 11.0739C2.22067 9.98565 2.29176 9.5044 2.5816 8.58565C3.8777 4.48956 8.35661 1.77159 13.0214 2.2419Z" fill="#3713FD"/>
<path d="M11.1561 4.51719C10.0952 4.74141 9.18193 5.35938 8.56943 6.26172C7.95146 7.16953 7.69443 8.54766 8.03896 9.10547C8.10458 9.21484 8.26318 9.36797 8.38349 9.45C8.56943 9.57578 8.66786 9.59766 8.96865 9.59766C9.26943 9.59766 9.36786 9.57578 9.5538 9.45C9.88193 9.23672 10.0022 8.99609 10.0624 8.46563C10.1554 7.65625 10.5272 7.10391 11.2054 6.78672C11.4624 6.66641 11.5882 6.64453 11.9765 6.64453C12.3921 6.64453 12.4851 6.66641 12.8077 6.825C13.2288 7.03281 13.5186 7.32812 13.721 7.76016C13.8413 8.01719 13.8632 8.14297 13.8632 8.53125C13.8632 9.3625 13.5241 9.86562 12.6765 10.3141C11.5116 10.9211 10.8171 12.0477 10.8991 13.1906C10.9429 13.8688 11.3311 14.2461 11.9765 14.2461C12.6163 14.2461 12.9772 13.8961 13.0647 13.1906C13.1304 12.6711 13.2616 12.4633 13.6499 12.2828C14.7929 11.7414 15.6186 10.757 15.9522 9.54844C16.0671 9.12734 16.0835 8.02813 15.9741 7.60156C15.6569 6.33281 14.7272 5.24453 13.5296 4.74141C12.8296 4.44609 11.8944 4.35859 11.1561 4.51719Z" fill="#3713FD"/>
<path d="M11.5507 15.6454C11.2882 15.722 10.9546 16.0829 10.878 16.3618C10.7522 16.8486 10.9436 17.3571 11.3593 17.6142C11.671 17.8111 12.2014 17.8001 12.5077 17.5978C12.8468 17.3736 12.9889 17.1056 12.9889 16.679C12.9889 16.2579 12.8468 15.9845 12.5241 15.7712C12.2889 15.6126 11.8405 15.5579 11.5507 15.6454Z" fill="#3713FD"/>
</svg>