<svg width="24" height="28" viewBox="0 0 24 28" fill="none" xmlns="http://www.w3.org/2000/svg">
<path d="M11.0539 0.0820312C9.92734 0.295313 8.9375 0.814844 8.13906 1.61328C6.48203 3.27031 6.06641 5.80781 7.11094 7.89141C7.41172 8.4875 7.71797 8.90859 8.2375 9.41172L8.71875 9.88203L8.45625 9.98047C8.01328 10.15 7.23672 10.5547 6.75547 10.8719C6.29609 11.1727 5.47578 11.8344 5.22969 12.1023L5.10391 12.2336L4.24531 11.9109C3.30469 11.5555 3.08047 11.5281 2.76875 11.7469C2.44609 11.982 2.42969 12.0805 2.42969 13.7977V15.3562L2.12344 15.4547C1.04609 15.7937 0.242188 16.8984 0.242188 18.0469C0.242188 19.1953 1.04609 20.3 2.12344 20.6391L2.42969 20.7375V22.4164C2.42969 23.9477 2.44062 24.1063 2.53359 24.2812C2.58828 24.3852 2.70859 24.5164 2.79609 24.5656C3.08047 24.7352 11.8469 28 12.0055 28C12.1586 28 20.7281 24.8172 21.1383 24.6039C21.275 24.5383 21.3898 24.418 21.4609 24.2812C21.5648 24.0789 21.5703 23.9641 21.5703 22.4V20.7375L21.8766 20.6391C23.1945 20.2289 24.0148 18.7469 23.6758 17.418C23.4352 16.4773 22.7898 15.7664 21.9039 15.4711L21.5703 15.3562V13.8031C21.5703 12.3484 21.5648 12.2336 21.4609 12.0312C21.3352 11.7906 21.0234 11.5938 20.7609 11.5938C20.668 11.5938 20.2141 11.7359 19.7492 11.9164L18.8961 12.2336L18.7703 12.1023C18.0758 11.3586 16.5664 10.3687 15.5437 9.98047L15.2867 9.8875L15.768 9.41172C16.6648 8.52578 17.1789 7.56875 17.3867 6.37109C17.8734 3.58203 16.0687 0.847656 13.2852 0.158594C12.7 0.0109386 11.6227 -0.0273438 11.0539 0.0820312ZM12.7273 1.71719C13.8867 1.94141 14.8875 2.7125 15.4125 3.78438C15.9648 4.91641 15.9648 6.02109 15.407 7.16406C15.1992 7.59609 15.0789 7.76016 14.6852 8.15391C14.2914 8.54766 14.1273 8.66797 13.6953 8.87578C12.5523 9.43359 11.4477 9.43359 10.3047 8.87578C9.87266 8.66797 9.70859 8.54766 9.31484 8.15391C8.92656 7.76562 8.80078 7.59609 8.5875 7.16406C8.03516 6.0375 8.03516 4.9 8.5875 3.77344C8.80078 3.34141 8.92656 3.17188 9.31484 2.78359C9.70312 2.39531 9.87266 2.26953 10.3047 2.05625C11.1031 1.6625 11.8742 1.55859 12.7273 1.71719ZM13.5969 11.1016C14.3133 11.2492 14.975 11.4898 15.6695 11.8508C16.2 12.1242 17.0914 12.7312 17.1297 12.8461C17.1352 12.868 15.9867 13.3273 14.5703 13.8578L12 14.8203L9.44609 13.8633C8.04609 13.3383 6.88125 12.8898 6.86484 12.8789C6.79375 12.8078 7.69609 12.1844 8.40703 11.8125C9.2 11.3969 10.0695 11.1234 11.0156 10.9922C11.5844 10.9156 12.9898 10.9703 13.5969 11.1016ZM7.69609 14.957L11.1797 16.2641V21.1258C11.1797 24.9922 11.1633 25.982 11.1141 25.9656C11.0758 25.9492 9.47344 25.3531 7.55937 24.6367L4.07031 23.3297V22.0391V20.743L4.29453 20.6773C4.59531 20.5844 4.96172 20.2125 5.07109 19.8789C5.20781 19.4852 5.20781 16.6086 5.07109 16.2148C4.96172 15.8813 4.59531 15.5094 4.29453 15.4164L4.07031 15.3508V14.4758C4.07031 13.8031 4.08672 13.6117 4.14141 13.6281C4.17422 13.6445 5.77656 14.2406 7.69609 14.957ZM19.9297 14.4812V15.3508L19.7055 15.4164C19.3937 15.5094 19.0383 15.8813 18.9234 16.2312C18.8414 16.4719 18.8305 16.7234 18.8469 18.1672L18.8633 19.8242L19.0164 20.0867C19.1859 20.3766 19.5195 20.6445 19.7711 20.6992L19.9297 20.7375V22.0336V23.3297L16.4461 24.6367C14.5266 25.3531 12.9242 25.9492 12.8914 25.9656C12.8367 25.982 12.8203 24.9922 12.8203 21.1258V16.2641L16.3367 14.9461C18.2672 14.2188 19.8641 13.6227 19.8914 13.6227C19.9133 13.6172 19.9297 14.0055 19.9297 14.4812ZM3.52344 18.0523V19.157L3.06953 19.1297C2.71406 19.1133 2.56641 19.0805 2.40781 18.982C1.81172 18.6102 1.71875 17.7734 2.21094 17.2812C2.4625 17.0297 2.65391 16.9641 3.15703 16.9586L3.52344 16.9531V18.0523ZM21.5922 17.1117C21.707 17.1828 21.8602 17.3414 21.9422 17.4617C22.068 17.6477 22.0898 17.7461 22.0898 18.0469C22.0898 18.3477 22.068 18.4461 21.9422 18.632C21.7125 18.982 21.4664 19.1023 20.9305 19.1297L20.4766 19.157V18.0469V16.9367L20.9305 16.9641C21.2859 16.9805 21.4336 17.0133 21.5922 17.1117Z" fill="#F97115"/>
</svg>