<svg width="28" height="28" viewBox="0 0 28 28" fill="none" xmlns="http://www.w3.org/2000/svg">
<path d="M5.40312 0.114844C5.27734 0.180469 5.15156 0.306251 5.08594 0.4375C4.97656 0.645312 4.97656 0.749219 4.97656 5.74219C4.97656 10.7352 4.97656 10.8391 5.08594 11.0469C5.15703 11.1891 5.27187 11.3039 5.41406 11.375C5.62734 11.4844 5.71484 11.4844 15.0938 11.4844C24.4727 11.4844 24.5602 11.4844 24.7734 11.375C24.9156 11.3039 25.0305 11.1891 25.1016 11.0469C25.2109 10.8391 25.2109 10.7352 25.2109 5.74219C25.2109 0.749219 25.2109 0.645312 25.1016 0.4375C25.0305 0.295313 24.9156 0.180469 24.7734 0.109375C24.5602 0 24.4727 0 15.0828 0C5.75313 0.00546932 5.6 0.00546932 5.40312 0.114844ZM8.06094 1.76094C8.00625 1.94688 7.77656 2.29688 7.57969 2.51016C7.39375 2.70703 6.93437 3.02422 6.74297 3.08438L6.61719 3.12266V2.38438V1.64062H7.36094H8.09922L8.06094 1.76094ZM20.3984 1.72266C20.3984 1.77188 20.4477 1.96328 20.5133 2.14922C20.9125 3.35234 22.0773 4.45156 23.2859 4.75781L23.5703 4.83437V5.75313C23.5703 6.58984 23.5594 6.67188 23.4773 6.67188C23.4227 6.67188 23.2148 6.73203 23.007 6.80312C21.9133 7.19141 20.8742 8.24688 20.5133 9.33516C20.4477 9.52109 20.3984 9.7125 20.3984 9.76172C20.3984 9.83281 19.8242 9.84375 15.1047 9.84375H9.81094L9.73438 9.55938C9.42812 8.36172 8.37812 7.22969 7.18047 6.80312C6.97266 6.73203 6.76484 6.67188 6.71562 6.67188C6.62812 6.67188 6.61719 6.58984 6.61719 5.74766V4.82344L6.81953 4.78516C6.93437 4.76328 7.175 4.68672 7.35547 4.61016C8.50391 4.12891 9.44453 3.0625 9.73438 1.925L9.81094 1.64062H15.1047C19.8242 1.64062 20.3984 1.65156 20.3984 1.72266ZM23.5703 2.38438V3.12266L23.45 3.08438C23.2531 3.02422 22.7937 2.70703 22.6078 2.51016C22.4109 2.29688 22.1812 1.94688 22.1266 1.76094L22.0883 1.64062H22.8266H23.5703V2.38438ZM7.08203 8.575C7.49766 8.83203 7.94609 9.35703 8.06094 9.71797L8.09922 9.84375H7.36094H6.61719V9.1V8.36172L6.74297 8.4C6.80859 8.42188 6.96172 8.49844 7.08203 8.575ZM23.5703 9.10547V9.84375H22.8266H22.0883L22.1266 9.71797C22.1977 9.48828 22.5148 9.05078 22.7609 8.83203C22.9852 8.63516 23.4227 8.36719 23.532 8.36719C23.5539 8.36719 23.5703 8.70078 23.5703 9.10547Z" fill="#E5303E"/>
<path d="M14.5198 3.3581C14.0605 3.47294 13.7159 3.66982 13.3659 4.01982C12.398 4.98232 12.398 6.49716 13.3714 7.46513C14.7823 8.88153 17.1722 8.11044 17.5112 6.13075C17.6425 5.35966 17.3909 4.59403 16.8167 4.01435C16.2042 3.39638 15.3456 3.15028 14.5198 3.3581ZM15.4769 5.03153C15.723 5.15732 15.9144 5.46903 15.9144 5.74247C15.9144 6.1581 15.5097 6.56278 15.0886 6.56278C14.837 6.56278 14.498 6.3495 14.3776 6.11435C14.1753 5.7206 14.3011 5.28857 14.6894 5.05341C14.9519 4.89482 15.1925 4.88935 15.4769 5.03153Z" fill="#E5303E"/>
<path d="M9.77812 5.03672C9.54297 5.15703 9.35156 5.47969 9.35156 5.74219C9.35156 6.01562 9.54297 6.32734 9.78906 6.45312C9.90391 6.51328 10.0789 6.5625 10.1719 6.5625C10.5875 6.5625 10.9922 6.15781 10.9922 5.74219C10.9922 5.46875 10.8008 5.15703 10.5547 5.03125C10.2867 4.89453 10.0406 4.89453 9.77812 5.03672Z" fill="#E5303E"/>
<path d="M19.6219 5.03672C19.3867 5.15703 19.1953 5.47969 19.1953 5.74219C19.1953 6.01562 19.3867 6.32734 19.6328 6.45312C19.7477 6.51328 19.9227 6.5625 20.0156 6.5625C20.2891 6.5625 20.6008 6.37109 20.7266 6.125C20.7867 6.01016 20.8359 5.83516 20.8359 5.74219C20.8359 5.46875 20.6445 5.15703 20.3984 5.03125C20.1305 4.89453 19.8844 4.89453 19.6219 5.03672Z" fill="#E5303E"/>
<path d="M8.34537 15.2086C7.6399 15.2633 6.89615 15.4547 5.8024 15.8594C5.31568 16.0398 4.88912 16.1875 4.85083 16.1875C4.81255 16.182 4.73599 16.0836 4.67584 15.9578C4.53912 15.6734 4.35318 15.5312 4.05787 15.493C3.86646 15.4656 3.58209 15.5531 2.14927 16.0781C1.21959 16.4172 0.404741 16.7453 0.333648 16.8055C0.0438039 17.068 0.0547414 16.8984 0.0547414 22.3125C0.0547414 27.2508 0.0547414 27.3547 0.164116 27.5625C0.23521 27.7047 0.350054 27.8195 0.492241 27.8906C0.694585 27.9945 0.809429 28 2.63599 28H4.56646L6.25084 27.3875C8.06099 26.7313 8.21959 26.6438 8.29068 26.2664C8.31255 26.157 8.3563 26.0859 8.40552 26.0859C8.44927 26.0859 10.1008 26.3102 12.0696 26.5781C14.0383 26.8516 15.7774 27.0703 15.9415 27.0703C16.3407 27.0703 16.9915 26.9391 17.3852 26.7805C17.5657 26.7094 19.7751 25.5664 22.2961 24.2484C26.4141 22.0883 26.9063 21.8148 27.1852 21.5469C28.1805 20.5734 28.1915 19.0148 27.2016 18.0141C26.6165 17.418 25.7305 17.1609 24.8993 17.3359C24.7571 17.3688 23.4829 17.932 22.0665 18.5938L19.5016 19.7914L19.4305 19.518C19.2282 18.7359 18.5501 18.0141 17.8063 17.8008C17.6532 17.757 16.9641 17.6203 16.2696 17.5C14.4266 17.1773 14.0547 17.0461 12.8243 16.2859C11.4461 15.4383 9.96412 15.0828 8.34537 15.2086ZM10.079 16.9367C10.8227 17.0789 11.4571 17.3469 12.2336 17.85C13.2454 18.5008 13.9563 18.7469 15.7227 19.0641C17.4235 19.3648 17.4508 19.3758 17.6586 19.6055C17.8774 19.857 17.9211 20.1141 17.8008 20.4258C17.6915 20.7211 17.4618 20.8961 17.1555 20.9289C17.0133 20.9453 15.9305 20.7758 14.2844 20.4859C12.8352 20.2289 11.5774 20.0156 11.4899 20.0156C11.3094 20.0156 11.0196 20.1961 10.861 20.4148C10.7079 20.6227 10.7079 21.0547 10.861 21.257C11.1071 21.5797 11.1235 21.5852 14.0055 22.0992C15.5204 22.3672 16.9149 22.5859 17.0954 22.5859C17.5274 22.5859 18.0524 22.4219 18.4024 22.1813C18.5555 22.0773 20.1524 21.3008 21.9626 20.4586C25.4024 18.8508 25.468 18.8234 25.8071 19.0039C26.3485 19.2828 26.4579 19.9938 26.0149 20.382C25.9165 20.4695 23.8055 21.6016 21.3282 22.8977C18.118 24.582 16.7126 25.2875 16.461 25.3531C16.2258 25.4133 15.9907 25.4352 15.7501 25.4133C15.143 25.3641 7.79849 24.3359 7.76021 24.2922C7.7274 24.2539 5.43599 17.9867 5.40318 17.8391C5.38677 17.757 7.04927 17.1172 7.65084 16.975C8.44927 16.7891 9.24771 16.7727 10.079 16.9367ZM4.97662 21.4867C5.78599 23.7234 6.44771 25.5609 6.44224 25.5664C6.4313 25.5719 5.94458 25.7523 5.35943 25.9711L4.29302 26.3594H2.99146H1.69537L1.7063 22.1703L1.72271 17.9812L2.57037 17.6695C3.03521 17.4945 3.43443 17.3688 3.4563 17.3852C3.47818 17.4016 4.16177 19.25 4.97662 21.4867Z" fill="#E5303E"/>
</svg>