<svg width="34" height="34" viewBox="0 0 34 34" fill="none" xmlns="http://www.w3.org/2000/svg">
<path d="M6.375 2.125C4.03888 2.125 2.125 4.03888 2.125 6.375V27.625C2.125 29.9611 4.03888 31.875 6.375 31.875H17C17.2818 31.875 17.552 31.7631 17.7513 31.5638C17.9506 31.3645 18.0625 31.0943 18.0625 30.8125C18.0625 30.5307 17.9506 30.2605 17.7513 30.0612C17.552 29.8619 17.2818 29.75 17 29.75H6.375C5.17937 29.75 4.25 28.8206 4.25 27.625V6.375C4.25 5.17937 5.17937 4.25 6.375 4.25H21.25C22.4456 4.25 23.375 5.17937 23.375 6.375V8.5C23.375 8.78179 23.4869 9.05204 23.6862 9.2513C23.8855 9.45056 24.1557 9.5625 24.4375 9.5625C24.7193 9.5625 24.9895 9.45056 25.1888 9.2513C25.3881 9.05204 25.5 8.78179 25.5 8.5V6.375C25.5 4.03888 23.5861 2.125 21.25 2.125H6.375Z" fill="#1A9EFD"/>
<path d="M24.4375 10.625C20.3425 10.625 17 13.9675 17 18.0625C17 20.5837 18.2704 22.8152 20.2 24.1615V30.8125C20.2001 31.0049 20.2525 31.1937 20.3516 31.3587C20.4507 31.5237 20.5928 31.6587 20.7626 31.7492C20.9324 31.8398 21.1236 31.8825 21.3158 31.8729C21.508 31.8632 21.694 31.8016 21.8539 31.6945L24.4375 29.9658L27.0211 31.6945C27.181 31.8016 27.367 31.8632 27.5592 31.8729C27.7514 31.8825 27.9426 31.8398 28.1124 31.7492C28.2822 31.6587 28.4243 31.5237 28.5234 31.3587C28.6225 31.1937 28.6749 31.0049 28.675 30.8125V24.1615C30.6046 22.8152 31.875 20.5837 31.875 18.0625C31.875 13.9675 28.5325 10.625 24.4375 10.625ZM24.4375 12.75C27.3841 12.75 29.75 15.1159 29.75 18.0625C29.75 21.0091 27.3841 23.375 24.4375 23.375C21.4909 23.375 19.125 21.0091 19.125 18.0625C19.125 15.1159 21.4909 12.75 24.4375 12.75ZM22.325 25.1887C22.9953 25.3883 23.704 25.5 24.4375 25.5C25.171 25.5 25.8797 25.3883 26.55 25.1887V28.8245L25.0289 27.8055C24.854 27.6883 24.6481 27.6257 24.4375 27.6257C24.2269 27.6257 24.021 27.6883 23.8461 27.8055L22.325 28.8245V25.1887Z" fill="#1A9EFD"/>
<path d="M8.5 7.4375C8.21821 7.4375 7.94796 7.54944 7.7487 7.7487C7.54944 7.94796 7.4375 8.21821 7.4375 8.5C7.4375 8.78179 7.54944 9.05204 7.7487 9.2513C7.94796 9.45056 8.21821 9.5625 8.5 9.5625H11.6875C11.9693 9.5625 12.2395 9.45056 12.4388 9.2513C12.6381 9.05204 12.75 8.78179 12.75 8.5C12.75 8.21821 12.6381 7.94796 12.4388 7.7487C12.2395 7.54944 11.9693 7.4375 11.6875 7.4375H8.5ZM8.5 11.6875C8.21821 11.6875 7.94796 11.7994 7.7487 11.9987C7.54944 12.198 7.4375 12.4682 7.4375 12.75C7.4375 13.0318 7.54944 13.302 7.7487 13.5013C7.94796 13.7006 8.21821 13.8125 8.5 13.8125H14.875C15.1568 13.8125 15.427 13.7006 15.6263 13.5013C15.8256 13.302 15.9375 13.0318 15.9375 12.75C15.9375 12.4682 15.8256 12.198 15.6263 11.9987C15.427 11.7994 15.1568 11.6875 14.875 11.6875H8.5ZM8.5 15.9375C8.21821 15.9375 7.94796 16.0494 7.7487 16.2487C7.54944 16.448 7.4375 16.7182 7.4375 17C7.4375 17.2818 7.54944 17.552 7.7487 17.7513C7.94796 17.9506 8.21821 18.0625 8.5 18.0625H11.6875C11.9693 18.0625 12.2395 17.9506 12.4388 17.7513C12.6381 17.552 12.75 17.2818 12.75 17C12.75 16.7182 12.6381 16.448 12.4388 16.2487C12.2395 16.0494 11.9693 15.9375 11.6875 15.9375H8.5Z" fill="#1A9EFD"/>
</svg>