<svg width="28" height="28" viewBox="0 0 28 28" fill="none" xmlns="http://www.w3.org/2000/svg">
<path d="M5.90639 0.027298C5.86264 0.0382366 5.63842 0.0765171 5.4142 0.109329C4.14545 0.317142 2.90405 0.967924 1.93608 1.93589C1.01186 2.86558 0.410296 3.95933 0.13139 5.24995C0.0329523 5.69292 0.0274835 6.11949 0.0274835 13.9726C0.0274835 22.9304 0.0110773 22.482 0.333734 23.4718C0.650921 24.4507 1.18139 25.3039 1.93608 26.064C2.69623 26.8187 3.54936 27.3492 4.52826 27.6664C5.5017 27.9835 5.28842 27.9726 11.5447 27.9726H17.3142L17.5384 27.825C17.8775 27.6007 18.0197 27.3328 18.0197 26.9062C18.0197 26.4796 17.8775 26.2117 17.5384 25.9875L17.3142 25.8398L11.572 25.8125C5.35405 25.7796 5.73686 25.796 4.92748 25.4898C3.93217 25.1125 2.88217 24.0625 2.51576 23.089C2.19311 22.2359 2.21498 22.8593 2.21498 14C2.21498 5.14058 2.19311 5.76402 2.51576 4.91089C2.90405 3.86636 3.97045 2.84917 5.08061 2.45542C5.86811 2.17652 5.75873 2.18199 14.2462 2.19839C22.8923 2.2148 22.2306 2.19292 23.0892 2.51558C23.5212 2.67417 24.1556 3.10074 24.5275 3.48355C24.9158 3.86636 25.3259 4.4898 25.4845 4.91089C25.8017 5.75308 25.7798 5.33746 25.8126 11.5937C25.84 17.2375 25.84 17.3687 25.9494 17.5492C26.0095 17.6531 26.1517 17.8117 26.2665 17.9046C26.4634 18.0632 26.5072 18.0742 26.9064 18.0742C27.3001 18.0742 27.3494 18.0632 27.5462 17.9046C27.6611 17.8171 27.8087 17.6312 27.8798 17.4945L28.0056 17.2539L27.9837 11.4296C27.9673 6.19058 27.9564 5.56714 27.8744 5.23355C27.2236 2.59761 25.4408 0.787455 22.8595 0.147612C22.4001 0.0327682 22.3455 0.0327682 14.1915 0.0218296C9.67983 0.0163612 5.95014 0.0163612 5.90639 0.027298Z" fill="#1378AF"/>
<path d="M6.34922 5.50703C5.86797 5.67656 5.46875 6.25078 5.46875 6.78125C5.46875 7.50312 6.11406 8.14844 6.83594 8.14844C7.16406 8.14844 7.54688 7.98437 7.79297 7.73828C8.82109 6.71016 7.72734 5.02031 6.34922 5.50703Z" fill="#1378AF"/>
<path d="M11.0575 5.85703C10.8005 5.93359 10.4614 6.28906 10.3848 6.57344C10.2591 7.06016 10.4505 7.56875 10.8661 7.82578L11.0739 7.95703H16.4333H21.7927L22.0005 7.82578C22.1153 7.75469 22.2739 7.59609 22.3559 7.47578C22.4817 7.28984 22.5036 7.19141 22.5036 6.89062C22.5036 6.58984 22.4817 6.49141 22.3559 6.30547C22.2739 6.18516 22.1153 6.02656 22.0005 5.95547L21.7927 5.82422L16.5153 5.81328C13.2833 5.80781 11.1669 5.82422 11.0575 5.85703Z" fill="#1378AF"/>
<path d="M6.19032 10.232C5.93328 10.3086 5.59422 10.6641 5.51766 10.9484C5.39188 11.4352 5.58328 11.9437 5.99891 12.2008L6.20672 12.332H13.9997H21.7927L22.0005 12.2008C22.1153 12.1297 22.2739 11.9711 22.3559 11.8508C22.4817 11.6648 22.5036 11.5664 22.5036 11.2656C22.5036 10.9648 22.4817 10.8664 22.3559 10.6805C22.2739 10.5602 22.1153 10.4016 22.0005 10.3305L21.7927 10.1992L14.0817 10.1883C9.31297 10.1828 6.29969 10.1992 6.19032 10.232Z" fill="#1378AF"/>
<path d="M6.19032 14.607C5.93328 14.6836 5.59422 15.0445 5.51766 15.3234C5.39188 15.8102 5.58328 16.3187 5.99891 16.5758L6.20672 16.707H8.53094H10.8552L11.063 16.5758C11.1778 16.5047 11.3364 16.3461 11.4184 16.2258C11.5442 16.0398 11.5661 15.9414 11.5661 15.6406C11.5661 15.3398 11.5442 15.2414 11.4184 15.0555C11.3364 14.9352 11.1778 14.7766 11.063 14.7055L10.8552 14.5742L8.61297 14.5633C7.295 14.5578 6.29422 14.5742 6.19032 14.607Z" fill="#1378AF"/>
<path d="M15.2688 14.6066C14.9078 14.7105 14.5469 15.2137 14.5469 15.6129C14.5469 15.8754 15.2633 19.3316 15.4219 19.8238C15.75 20.8465 16.2422 21.716 16.9586 22.5582C17.4781 23.1707 21.4102 27.0754 21.7109 27.2723C22.0828 27.5238 22.4602 27.7043 22.9141 27.841C23.4992 28.027 24.5109 28.027 25.1016 27.841C26.4688 27.4199 27.4148 26.4738 27.8414 25.1012C28.0273 24.5105 28.0273 23.4988 27.8414 22.9137C27.5297 21.9184 27.4258 21.7816 25.025 19.3699C22.843 17.1715 22.4 16.7668 21.6836 16.302C20.6445 15.6238 19.8898 15.3723 17.5 14.8965C15.657 14.5355 15.5695 14.5246 15.2688 14.6066ZM18.0305 17.2316C18.9164 17.4121 19.4852 17.5871 19.9227 17.8059C20.6937 18.1996 20.9562 18.4238 23.2312 20.6934C25.818 23.2691 25.7852 23.2254 25.7852 24.0074C25.7797 24.3629 25.7523 24.5324 25.6648 24.7293C25.5008 25.0902 25.1398 25.4566 24.7789 25.6316C24.5164 25.7629 24.407 25.7848 24.0078 25.7848C23.2258 25.7848 23.2695 25.8176 20.6937 23.2309C18.4242 20.9559 18.2 20.6934 17.8062 19.9223C17.5875 19.4848 17.4125 18.916 17.232 18.0301C17.0406 17.1059 17.0352 17.0621 17.1445 17.0621C17.1883 17.0621 17.5875 17.1387 18.0305 17.2316Z" fill="#1378AF"/>
</svg>